<?xml version="1.0" encoding="utf-8"?>
<!-- Generator: Adobe Illustrator 27.9.0, SVG Export Plug-In . SVG Version: 6.00 Build 0)  -->
<svg version="1.1" id="Layer_1" xmlns="http://www.w3.org/2000/svg" xmlns:xlink="http://www.w3.org/1999/xlink" x="0px" y="0px"
	 viewBox="0 0 200 80" style="enable-background:new 0 0 200 80;" xml:space="preserve">
<style type="text/css">
	.st0{font-family:'LiGothicMed';}
	.st1{font-size:33.2995px;}
	.st2{fill:#FFFFFF;}
</style>
<g>
	<text transform="matrix(1 0 0 1 74.9956 48.4706)" class="st0 st1">KafHerder</text>
	<g>
		<g id="OI1cZ9.tif">
			<g>
				<path class="st2" d="M22.75,39.29c1.6,0,3.19,0,4.79,0c0.12,0,0.23,0.01,0.34,0.03c0.34,0.06,0.55,0.26,0.62,0.6
					c0.03,0.15,0.03,0.29,0.07,0.44c0.05,0.17,0.09,0.35,0.18,0.5c0.13,0.21,0.21,0.42,0.23,0.67c0.02,0.28,0.1,0.53,0.26,0.76
					c0.29,0.41,0.56,0.83,0.84,1.24c0.16,0.24,0.28,0.5,0.48,0.7c0.7,0.73,1.43,1.44,2.15,2.15c0.12,0.12,0.28,0.21,0.43,0.26
					c0.46,0.15,0.81,0.51,1.29,0.6c0.03,0.01,0.06,0.04,0.09,0.06c0.28,0.27,0.63,0.34,1,0.37c0.11,0.01,0.24,0.02,0.32,0.09
					c0.24,0.2,0.52,0.26,0.83,0.28c0.19,0.01,0.38,0.07,0.57,0.11c0.24,0.06,0.34,0.2,0.33,0.44c-0.01,0.29-0.02,0.59-0.02,0.89
					c0,2.97,0,5.95,0,8.93c0,0.2,0.01,0.39,0.02,0.58c0.01,0.33-0.1,0.63-0.28,0.89c-0.15,0.21-0.41,0.17-0.62,0.21
					c-0.17,0.04-0.35,0.1-0.51,0.18c-0.41,0.2-0.8,0.45-1.21,0.62c-0.64,0.26-1.2,0.6-1.66,1.11c-0.19,0.21-0.4,0.41-0.61,0.61
					c-0.29,0.28-0.5,0.58-0.66,0.97c-0.17,0.4-0.4,0.77-0.6,1.16c-0.16,0.32-0.3,0.63-0.33,0.99c-0.01,0.14-0.07,0.29-0.14,0.4
					c-0.1,0.16-0.17,0.32-0.17,0.51c-0.01,0.8-0.04,1.6-0.01,2.39c0.02,0.46,0.14,0.92,0.21,1.38c0.01,0.02,0.01,0.04,0.02,0.06
					c0.33,0.65,0.65,1.3,1,1.94c0.14,0.26,0.32,0.5,0.5,0.72c0.23,0.28,0.45,0.59,0.73,0.8c0.38,0.27,0.69,0.6,1.02,0.91
					c0.13,0.12,0.28,0.24,0.45,0.3c0.29,0.1,0.53,0.25,0.75,0.46c0.13,0.12,0.28,0.2,0.46,0.19c0.38-0.04,0.71,0.12,1.05,0.25
					c0.24,0.09,0.5,0.15,0.75,0.19c0.24,0.04,0.5,0.03,0.75,0.04c0.84,0.04,1.68-0.06,2.51-0.2c0.06-0.01,0.12-0.02,0.16-0.06
					c0.2-0.15,0.45-0.15,0.67-0.23c0.45-0.18,0.88-0.39,1.31-0.61c0.19-0.1,0.34-0.27,0.53-0.37c0.49-0.24,0.83-0.67,1.27-0.98
					c0.1-0.07,0.16-0.19,0.24-0.29c0.08-0.1,0.17-0.19,0.23-0.29c0.09-0.14,0.2-0.28,0.26-0.43c0.07-0.19,0.16-0.35,0.32-0.48
					c0.14-0.11,0.23-0.25,0.22-0.44c-0.02-0.2,0.07-0.35,0.23-0.46c0.16-0.12,0.23-0.28,0.23-0.47c0-0.1,0.02-0.21,0.09-0.29
					c0.18-0.23,0.24-0.48,0.26-0.76c0.02-0.35,0.04-0.7,0.07-1.05c0.01-0.17,0.04-0.34,0.09-0.5c0.15-0.47,0.13-0.94-0.02-1.41
					c-0.07-0.23-0.12-0.46-0.13-0.7c-0.01-0.24-0.07-0.46-0.17-0.69c-0.1-0.24-0.17-0.5-0.25-0.74c-0.06-0.18-0.09-0.38-0.18-0.55
					c-0.4-0.75-0.91-1.42-1.53-1.99c-0.17-0.15-0.34-0.3-0.51-0.45c-0.15-0.13-0.32-0.25-0.46-0.4c-0.24-0.24-0.49-0.48-0.85-0.54
					c-0.1-0.02-0.2-0.1-0.3-0.15c-0.16-0.09-0.32-0.17-0.48-0.25c-0.1-0.05-0.23-0.06-0.31-0.13c-0.24-0.24-0.55-0.31-0.87-0.34
					c-0.27-0.03-0.48-0.18-0.56-0.45c-0.06-0.19-0.09-0.4-0.09-0.6c-0.01-3.19,0-6.38,0-9.57c0-0.2-0.01-0.39,0-0.58
					c0.03-0.47,0.31-0.73,0.76-0.81c0.56-0.09,1.13-0.13,1.64-0.42c0.47-0.26,0.97-0.45,1.43-0.72c0.48-0.28,0.92-0.63,1.39-0.91
					c0.29-0.18,0.58-0.35,0.82-0.61c0.18-0.2,0.39-0.38,0.58-0.59c0.15-0.17,0.28-0.35,0.4-0.54c0.24-0.37,0.43-0.77,0.78-1.08
					c0.1-0.09,0.15-0.26,0.16-0.39c0.02-0.18,0.06-0.33,0.21-0.44c0.15-0.1,0.21-0.25,0.23-0.43c0.01-0.13,0.06-0.27,0.13-0.37
					c0.18-0.26,0.28-0.54,0.29-0.86c0-0.18,0.04-0.34,0.16-0.47c0.17-0.2,0.2-0.43,0.21-0.67c0.01-0.15-0.01-0.29,0.01-0.44
					c0.11-0.91,0.13-1.82-0.02-2.72c-0.02-0.1-0.02-0.21,0-0.31c0.1-0.52-0.24-0.96-0.24-1.46c0-0.01-0.01-0.02-0.01-0.03
					c-0.18-0.24-0.21-0.52-0.24-0.81c-0.01-0.09-0.02-0.18-0.06-0.26c-0.17-0.35-0.33-0.7-0.52-1.03c-0.19-0.35-0.38-0.7-0.66-0.99
					c-0.12-0.12-0.2-0.28-0.28-0.43c-0.14-0.25-0.11-0.42,0.1-0.61c0.12-0.12,0.26-0.23,0.38-0.34c0.73-0.72,1.46-1.44,2.18-2.17
					c1.62-1.62,3.24-3.24,4.86-4.86c0.69-0.69,1.38-1.39,2.07-2.09c0.24-0.24,0.46-0.28,0.7-0.1c0.21,0.15,0.43,0.26,0.67,0.32
					c0.1,0.03,0.2,0.1,0.29,0.18c0.15,0.13,0.32,0.2,0.53,0.21c0.39,0.01,0.76,0.13,1.13,0.27c0.21,0.08,0.44,0.13,0.66,0.13
					c0.48,0.02,0.96,0,1.44,0.01c0.31,0.01,0.61-0.02,0.91-0.1c0.31-0.07,0.62-0.1,0.9-0.28c0.06-0.04,0.13-0.04,0.2-0.04
					c0.56,0.02,0.99-0.31,1.42-0.61c0.17-0.12,0.33-0.24,0.53-0.28c0.21-0.04,0.37-0.15,0.52-0.31c0.54-0.54,1.08-1.08,1.62-1.63
					c0.13-0.14,0.22-0.34,0.31-0.52c0.21-0.42,0.41-0.86,0.61-1.28c0.01-0.01,0.01-0.02,0.02-0.02c0.24-0.28,0.34-0.61,0.36-0.97
					c0.01-0.15,0.06-0.32,0.15-0.44c0.13-0.19,0.18-0.39,0.17-0.61c-0.01-0.28-0.01-0.57,0.01-0.86c0.04-0.61-0.01-1.2-0.11-1.79
					c-0.06-0.34-0.11-0.67-0.29-0.97c-0.04-0.07-0.04-0.18-0.04-0.27c-0.02-0.29-0.09-0.56-0.26-0.8c-0.18-0.25-0.38-0.49-0.5-0.76
					C68.98,9.12,68.8,8.87,68.6,8.6c-0.53-0.7-1.21-1.24-1.85-1.81c-0.04-0.04-0.1-0.07-0.15-0.08c-0.24-0.06-0.45-0.17-0.63-0.33
					C65.9,6.31,65.79,6.3,65.7,6.25c-0.19-0.1-0.38-0.2-0.57-0.3c-0.1-0.05-0.2-0.12-0.31-0.13c-0.36-0.06-0.72-0.09-1.08-0.14
					c-0.19-0.03-0.39-0.06-0.56-0.13c-0.51-0.26-1.05-0.21-1.57-0.11c-0.26,0.05-0.51,0.11-0.77,0.08
					c-0.14-0.01-0.31-0.01-0.43,0.06c-0.28,0.16-0.57,0.22-0.87,0.25c-0.08,0.01-0.17,0.02-0.23,0.06c-0.37,0.18-0.73,0.37-1.1,0.56
					c-0.46,0.23-0.89,0.48-1.28,0.81c-0.29,0.26-0.64,0.47-0.91,0.76c-0.2,0.21-0.43,0.43-0.54,0.69c-0.12,0.26-0.24,0.48-0.45,0.67
					c-0.21,0.19-0.42,0.4-0.46,0.7c-0.07,0.46-0.24,0.88-0.42,1.31c-0.17,0.42-0.2,0.91-0.28,1.36c-0.01,0.04,0,0.09,0,0.13
					c0,0.51-0.01,1.03,0.01,1.54c0.01,0.21,0.06,0.42,0.1,0.64c0.04,0.23,0.1,0.46,0.13,0.7c0.03,0.25,0.05,0.5,0.17,0.72
					c0.24,0.43,0.48,0.88,0.71,1.32c0.07,0.14,0.13,0.29,0.19,0.44c0.13,0.34,0.07,0.56-0.2,0.8c-0.13,0.11-0.26,0.23-0.37,0.35
					c-0.65,0.65-1.31,1.3-1.96,1.95c-0.82,0.82-1.64,1.65-2.46,2.47c-0.63,0.63-1.25,1.25-1.88,1.88c-0.69,0.69-1.38,1.38-2.08,2.07
					c-0.25,0.25-0.49,0.51-0.76,0.73c-0.24,0.2-0.36,0.17-0.62,0.01c-0.12-0.08-0.26-0.15-0.39-0.2c-0.2-0.07-0.37-0.16-0.51-0.33
					c-0.11-0.15-0.25-0.23-0.44-0.22c-0.17,0.01-0.31-0.06-0.43-0.16c-0.09-0.07-0.2-0.12-0.3-0.16c-0.28-0.1-0.55-0.21-0.83-0.31
					c-0.56-0.18-1.13-0.24-1.71-0.26c-0.24-0.01-0.48-0.02-0.7-0.09c-0.35-0.11-0.72-0.15-1.05-0.05c-0.42,0.12-0.85,0.12-1.28,0.2
					c-0.43,0.08-0.87,0.14-1.31,0.22c-0.1,0.02-0.2,0.07-0.28,0.11c-0.35,0.18-0.71,0.36-1.06,0.54c-0.54,0.28-1.1,0.54-1.64,0.83
					c-0.42,0.22-0.77,0.18-1.11-0.16c-0.64-0.64-1.27-1.27-1.91-1.91c-1.45-1.45-2.9-2.9-4.36-4.34c-0.19-0.19-0.24-0.4-0.16-0.65
					c0.04-0.13,0.04-0.27,0.09-0.4c0.04-0.14,0.07-0.29,0.15-0.4c0.17-0.26,0.26-0.53,0.28-0.83c0.01-0.12,0-0.26,0.05-0.37
					c0.15-0.36,0.13-0.73,0.13-1.11c0-0.24,0.02-0.48,0.01-0.72c-0.01-0.15-0.07-0.31-0.11-0.45c-0.06-0.2-0.17-0.38-0.18-0.58
					c-0.03-0.5-0.32-0.87-0.56-1.26c-0.23-0.38-0.48-0.74-0.74-1.1c-0.34-0.47-0.69-0.95-1.3-1.08c-0.07-0.01-0.13-0.04-0.19-0.08
					c-0.4-0.23-0.8-0.45-1.21-0.68c-0.07-0.04-0.15-0.06-0.23-0.07c-0.46-0.05-0.92-0.18-1.39-0.13c-0.14,0.02-0.29-0.02-0.43-0.07
					c-0.22-0.08-0.42-0.06-0.62,0.03c-0.18,0.07-0.37,0.12-0.56,0.12c-0.7-0.01-1.27,0.42-1.91,0.59c-0.06,0.02-0.11,0.08-0.16,0.12
					c-0.32,0.27-0.65,0.52-0.97,0.81c-0.21,0.2-0.4,0.43-0.59,0.65c-0.07,0.09-0.11,0.21-0.2,0.28c-0.48,0.37-0.71,0.89-0.91,1.44
					c-0.28,0.78-0.39,1.57-0.35,2.38c0.01,0.36,0.05,0.73,0.09,1.09c0.03,0.28,0.02,0.58,0.21,0.81c0.16,0.2,0.2,0.42,0.25,0.66
					c0.03,0.16,0.1,0.32,0.19,0.46c0.23,0.35,0.48,0.69,0.72,1.03c0.2,0.28,0.42,0.53,0.78,0.64c0.17,0.05,0.32,0.17,0.45,0.29
					c0.28,0.29,0.58,0.54,0.99,0.62c0.14,0.03,0.28,0.11,0.42,0.15c0.43,0.12,0.86,0.32,1.28,0.32c0.84,0,1.68,0.08,2.52-0.09
					c0.34-0.07,0.67-0.1,0.95-0.32c0.12-0.09,0.26-0.13,0.4-0.2c0.22-0.12,0.42-0.09,0.6,0.07c0.08,0.07,0.15,0.13,0.23,0.21
					c2.01,2.01,4.03,4.03,6.04,6.05c0.23,0.23,0.4,0.52,0.58,0.8c0.12,0.2,0.09,0.32-0.08,0.49c-0.05,0.05-0.1,0.09-0.16,0.13
					c-0.25,0.18-0.42,0.42-0.49,0.72c-0.03,0.13-0.09,0.26-0.18,0.36c-0.21,0.24-0.29,0.52-0.32,0.81
					c-0.02,0.27-0.06,0.51-0.25,0.72c-0.04,0.05-0.06,0.12-0.07,0.19c-0.06,0.35-0.11,0.69-0.15,1.05
					c-0.04,0.38-0.11,0.48-0.49,0.51c-0.37,0.02-0.75,0.02-1.13,0.02c-2.8,0.01-5.59,0.01-8.38,0.01c-0.34,0-0.69,0-1.03-0.02
					c-0.34-0.02-0.42-0.13-0.46-0.46c-0.02-0.22-0.09-0.44-0.16-0.65c-0.09-0.26-0.24-0.51-0.28-0.77
					c-0.06-0.49-0.36-0.84-0.63-1.19c-0.35-0.47-0.78-0.89-1.19-1.32c-0.44-0.46-0.9-0.9-1.48-1.2c-0.2-0.1-0.37-0.26-0.56-0.39
					c-0.12-0.07-0.23-0.15-0.36-0.18c-0.53-0.17-1.1-0.14-1.61-0.41c-0.01-0.01-0.02,0-0.04-0.01c-0.53-0.06-1.06-0.11-1.6-0.17
					c-0.06-0.01-0.12,0.01-0.17,0.01c-0.43,0.03-0.86,0.06-1.29,0.09c-0.41,0.03-0.82,0.04-1.16,0.32C6.4,29.97,6.31,30,6.23,30.01
					c-0.43,0.03-0.79,0.2-1.1,0.5c-0.02,0.02-0.04,0.02-0.06,0.04c-0.69,0.37-1.3,0.88-1.95,1.32C3.05,31.91,2.97,32,2.95,32.09
					c-0.06,0.3-0.26,0.5-0.47,0.69c-0.12,0.12-0.24,0.24-0.36,0.36c-0.11,0.11-0.19,0.23-0.17,0.39c0.02,0.22-0.09,0.35-0.24,0.5
					c-0.12,0.1-0.22,0.24-0.28,0.38c-0.17,0.45-0.33,0.9-0.35,1.38c-0.01,0.1-0.04,0.21-0.1,0.28c-0.2,0.23-0.23,0.48-0.2,0.76
					c0.02,0.12,0.01,0.25,0.01,0.37c0,0.59,0,1.18,0,1.77c0,0.2,0.06,0.37,0.18,0.54c0.09,0.13,0.18,0.28,0.18,0.43
					c0.03,0.63,0.31,1.16,0.62,1.68c0.13,0.21,0.22,0.45,0.34,0.67c0.07,0.12,0.15,0.23,0.23,0.34c0.17,0.23,0.34,0.45,0.53,0.67
					c0.23,0.25,0.46,0.5,0.72,0.72c0.28,0.23,0.61,0.4,0.89,0.62c0.41,0.31,0.91,0.43,1.35,0.7c0.21,0.13,0.46,0.19,0.7,0.26
					c0.29,0.09,0.59,0.15,0.89,0.21c0.42,0.09,0.85,0.03,1.25,0.1C9.13,46,9.55,45.98,10,45.9c0.37-0.07,0.75-0.09,1.11-0.14
					c0.14-0.02,0.3-0.07,0.41-0.16c0.21-0.17,0.45-0.21,0.69-0.26c0.17-0.04,0.33-0.13,0.49-0.21c0.37-0.19,0.75-0.37,1.06-0.64
					c0.04-0.04,0.1-0.04,0.16-0.06c0.06-0.03,0.13-0.06,0.18-0.1c0.33-0.33,0.69-0.64,0.97-1c0.2-0.26,0.4-0.52,0.64-0.75
					c0.17-0.16,0.29-0.35,0.34-0.58c0.03-0.12,0.07-0.25,0.15-0.34c0.17-0.2,0.27-0.42,0.34-0.66c0.02-0.07,0.04-0.17,0.1-0.21
					c0.23-0.23,0.29-0.53,0.33-0.84c0.04-0.34,0.26-0.55,0.59-0.62c0.13-0.02,0.27-0.04,0.41-0.04
					C19.56,39.29,21.15,39.29,22.75,39.29z"/>
				<path d="M22.75,39.29c-1.6,0-3.19,0-4.79,0c-0.13,0-0.28,0.01-0.41,0.04c-0.34,0.07-0.56,0.28-0.59,0.62
					c-0.04,0.31-0.1,0.61-0.33,0.84c-0.06,0.06-0.08,0.14-0.1,0.21c-0.07,0.24-0.17,0.46-0.34,0.66c-0.08,0.09-0.12,0.22-0.15,0.34
					c-0.06,0.23-0.17,0.42-0.34,0.58c-0.24,0.23-0.44,0.48-0.64,0.75c-0.28,0.37-0.64,0.67-0.97,1c-0.05,0.05-0.12,0.07-0.18,0.1
					c-0.05,0.02-0.12,0.03-0.16,0.06c-0.32,0.28-0.7,0.45-1.06,0.64c-0.16,0.08-0.32,0.17-0.49,0.21c-0.24,0.06-0.48,0.1-0.69,0.26
					c-0.11,0.09-0.26,0.13-0.41,0.16c-0.37,0.06-0.75,0.07-1.11,0.14c-0.45,0.08-0.87,0.1-1.33,0.01c-0.4-0.07-0.84-0.02-1.25-0.1
					c-0.3-0.07-0.6-0.13-0.89-0.21c-0.24-0.07-0.5-0.13-0.7-0.26c-0.43-0.27-0.94-0.39-1.35-0.7c-0.29-0.22-0.61-0.4-0.89-0.62
					c-0.26-0.21-0.5-0.46-0.72-0.72c-0.19-0.21-0.35-0.44-0.53-0.67c-0.08-0.11-0.16-0.22-0.23-0.34c-0.12-0.22-0.21-0.45-0.34-0.67
					c-0.31-0.52-0.59-1.05-0.62-1.68c-0.01-0.15-0.1-0.3-0.18-0.43c-0.12-0.17-0.18-0.34-0.18-0.54c0-0.59,0-1.18,0-1.77
					c0-0.12,0.01-0.25-0.01-0.37c-0.04-0.28-0.01-0.54,0.2-0.76c0.06-0.07,0.1-0.18,0.1-0.28c0.02-0.49,0.2-0.94,0.35-1.38
					c0.05-0.14,0.16-0.28,0.28-0.38c0.15-0.13,0.27-0.28,0.24-0.5c-0.02-0.16,0.07-0.28,0.17-0.39c0.12-0.12,0.24-0.24,0.36-0.36
					c0.21-0.2,0.41-0.39,0.47-0.69c0.02-0.09,0.1-0.18,0.18-0.23c0.65-0.44,1.25-0.94,1.95-1.32c0.02-0.01,0.04-0.02,0.06-0.04
					c0.31-0.29,0.67-0.46,1.1-0.5c0.07-0.01,0.16-0.04,0.22-0.09c0.34-0.29,0.75-0.3,1.16-0.32c0.43-0.03,0.86-0.06,1.29-0.09
					c0.06-0.01,0.12-0.01,0.17-0.01c0.53,0.06,1.06,0.11,1.6,0.17c0.01,0,0.02,0,0.04,0.01c0.5,0.27,1.08,0.24,1.61,0.41
					c0.13,0.04,0.25,0.11,0.36,0.18c0.19,0.12,0.36,0.29,0.56,0.39c0.58,0.29,1.04,0.73,1.48,1.2c0.4,0.43,0.83,0.84,1.19,1.32
					c0.26,0.35,0.58,0.7,0.63,1.19c0.03,0.26,0.19,0.51,0.28,0.77c0.07,0.21,0.13,0.43,0.16,0.65c0.04,0.34,0.12,0.45,0.46,0.46
					c0.34,0.02,0.69,0.02,1.03,0.02c2.8,0,5.59,0,8.38-0.01c0.37,0,0.75,0.01,1.13-0.02c0.38-0.02,0.45-0.13,0.49-0.51
					c0.04-0.35,0.09-0.7,0.15-1.05c0.01-0.07,0.03-0.14,0.07-0.19c0.18-0.21,0.23-0.45,0.25-0.72c0.02-0.29,0.12-0.58,0.32-0.81
					c0.09-0.1,0.15-0.23,0.18-0.36c0.07-0.31,0.24-0.54,0.49-0.72c0.06-0.04,0.11-0.09,0.16-0.13c0.17-0.17,0.2-0.29,0.08-0.49
					c-0.17-0.28-0.35-0.57-0.58-0.8c-2.01-2.02-4.03-4.04-6.04-6.05c-0.07-0.07-0.15-0.14-0.23-0.21c-0.18-0.16-0.38-0.19-0.6-0.07
					c-0.13,0.07-0.28,0.11-0.4,0.2c-0.29,0.22-0.62,0.25-0.95,0.32c-0.84,0.17-1.68,0.09-2.52,0.09c-0.43,0-0.86-0.2-1.28-0.32
					c-0.14-0.04-0.28-0.12-0.42-0.15c-0.41-0.09-0.72-0.33-0.99-0.62c-0.12-0.13-0.28-0.24-0.45-0.29
					c-0.35-0.11-0.58-0.36-0.78-0.64c-0.25-0.34-0.5-0.68-0.72-1.03c-0.09-0.14-0.16-0.31-0.19-0.46c-0.04-0.24-0.09-0.46-0.25-0.66
					c-0.19-0.24-0.18-0.53-0.21-0.81c-0.04-0.36-0.08-0.72-0.09-1.09c-0.03-0.81,0.08-1.6,0.35-2.38c0.2-0.56,0.42-1.07,0.91-1.44
					c0.09-0.07,0.12-0.19,0.2-0.28c0.19-0.23,0.37-0.46,0.59-0.65c0.31-0.28,0.64-0.54,0.97-0.81c0.06-0.04,0.1-0.11,0.16-0.12
					c0.65-0.17,1.21-0.59,1.91-0.59c0.19,0,0.39-0.05,0.56-0.12c0.21-0.09,0.41-0.11,0.62-0.03c0.13,0.05,0.29,0.09,0.43,0.07
					c0.48-0.06,0.93,0.07,1.39,0.13c0.08,0.01,0.16,0.03,0.23,0.07c0.4,0.22,0.8,0.45,1.21,0.68c0.06,0.03,0.12,0.06,0.19,0.08
					c0.62,0.14,0.97,0.61,1.3,1.08c0.26,0.36,0.51,0.72,0.74,1.1c0.24,0.4,0.53,0.76,0.56,1.26c0.01,0.2,0.12,0.39,0.18,0.58
					c0.04,0.15,0.1,0.3,0.11,0.45c0.02,0.24-0.01,0.48-0.01,0.72c0,0.37,0.02,0.75-0.13,1.11c-0.05,0.11-0.04,0.24-0.05,0.37
					c-0.02,0.3-0.11,0.58-0.28,0.83c-0.08,0.12-0.12,0.26-0.15,0.4c-0.04,0.13-0.04,0.27-0.09,0.4c-0.09,0.26-0.03,0.46,0.16,0.65
					c1.46,1.44,2.91,2.89,4.36,4.34c0.64,0.64,1.27,1.27,1.91,1.91c0.34,0.34,0.69,0.39,1.11,0.16c0.54-0.29,1.1-0.55,1.64-0.83
					c0.35-0.18,0.71-0.37,1.06-0.54c0.09-0.04,0.18-0.1,0.28-0.11c0.43-0.08,0.87-0.14,1.31-0.22c0.42-0.07,0.85-0.08,1.28-0.2
					c0.33-0.09,0.69-0.06,1.05,0.05c0.22,0.07,0.46,0.08,0.7,0.09c0.58,0.02,1.16,0.09,1.71,0.26c0.28,0.09,0.56,0.2,0.83,0.31
					c0.1,0.04,0.21,0.09,0.3,0.16c0.13,0.1,0.27,0.17,0.43,0.16c0.19-0.01,0.33,0.07,0.44,0.22c0.13,0.17,0.31,0.26,0.51,0.33
					c0.14,0.04,0.27,0.12,0.39,0.2c0.26,0.17,0.37,0.19,0.62-0.01c0.28-0.22,0.51-0.48,0.76-0.73c0.7-0.69,1.39-1.38,2.08-2.07
					c0.63-0.63,1.25-1.25,1.88-1.88c0.82-0.82,1.64-1.65,2.46-2.47c0.65-0.65,1.3-1.3,1.96-1.95c0.12-0.12,0.25-0.23,0.37-0.35
					c0.27-0.23,0.33-0.46,0.2-0.8c-0.06-0.15-0.12-0.3-0.19-0.44c-0.23-0.44-0.46-0.89-0.71-1.32c-0.13-0.23-0.15-0.47-0.17-0.72
					c-0.02-0.23-0.09-0.46-0.13-0.7c-0.04-0.21-0.09-0.42-0.1-0.64c-0.01-0.51-0.01-1.03-0.01-1.54c0-0.04-0.01-0.09,0-0.13
					c0.09-0.46,0.12-0.94,0.28-1.36c0.17-0.43,0.35-0.85,0.42-1.31c0.04-0.29,0.24-0.51,0.46-0.7c0.21-0.18,0.34-0.41,0.45-0.67
					C55.57,8.45,55.8,8.24,56,8.02c0.27-0.29,0.62-0.5,0.91-0.76c0.39-0.34,0.82-0.59,1.28-0.81c0.37-0.18,0.73-0.37,1.1-0.56
					c0.07-0.04,0.15-0.04,0.23-0.06c0.31-0.03,0.6-0.09,0.87-0.25c0.12-0.07,0.29-0.08,0.43-0.06c0.27,0.03,0.51-0.04,0.77-0.08
					c0.53-0.09,1.06-0.15,1.57,0.11c0.17,0.09,0.37,0.11,0.56,0.13c0.36,0.06,0.72,0.09,1.08,0.14c0.11,0.02,0.21,0.08,0.31,0.13
					c0.19,0.1,0.38,0.2,0.57,0.3c0.09,0.04,0.21,0.06,0.28,0.12c0.18,0.17,0.39,0.27,0.63,0.33c0.06,0.01,0.1,0.04,0.15,0.08
					c0.64,0.58,1.32,1.12,1.85,1.81c0.2,0.26,0.39,0.52,0.51,0.83c0.12,0.28,0.32,0.52,0.5,0.76c0.17,0.24,0.24,0.51,0.26,0.8
					c0.01,0.09,0,0.2,0.04,0.27c0.18,0.3,0.23,0.63,0.29,0.97c0.1,0.6,0.15,1.19,0.11,1.79c-0.02,0.28-0.02,0.57-0.01,0.86
					c0.01,0.23-0.04,0.42-0.17,0.61c-0.09,0.12-0.14,0.29-0.15,0.44c-0.02,0.36-0.12,0.69-0.36,0.97c-0.01,0.01-0.02,0.02-0.02,0.02
					c-0.2,0.43-0.4,0.86-0.61,1.28c-0.09,0.18-0.18,0.37-0.31,0.52c-0.53,0.55-1.08,1.08-1.62,1.63c-0.15,0.15-0.31,0.26-0.52,0.31
					c-0.21,0.04-0.36,0.17-0.53,0.28c-0.43,0.29-0.85,0.62-1.42,0.61c-0.07,0-0.15,0.01-0.2,0.04c-0.28,0.18-0.59,0.21-0.9,0.28
					c-0.31,0.07-0.61,0.1-0.91,0.1c-0.48-0.01-0.96,0.01-1.44-0.01c-0.22-0.01-0.45-0.06-0.66-0.13c-0.37-0.14-0.73-0.26-1.13-0.27
					c-0.2-0.01-0.37-0.07-0.53-0.21c-0.09-0.07-0.18-0.15-0.29-0.18c-0.24-0.07-0.46-0.17-0.67-0.32c-0.24-0.18-0.46-0.13-0.7,0.1
					c-0.69,0.7-1.38,1.39-2.07,2.09c-1.62,1.62-3.24,3.24-4.86,4.86c-0.73,0.73-1.45,1.45-2.18,2.17c-0.12,0.12-0.26,0.23-0.38,0.34
					c-0.21,0.2-0.24,0.35-0.1,0.61c0.08,0.15,0.16,0.31,0.28,0.43c0.28,0.29,0.47,0.64,0.66,0.99c0.18,0.34,0.35,0.69,0.52,1.03
					c0.04,0.08,0.05,0.18,0.06,0.26c0.03,0.29,0.07,0.57,0.24,0.81c0.01,0.01,0.01,0.02,0.01,0.03c0.01,0.5,0.34,0.94,0.24,1.46
					c-0.02,0.1-0.02,0.21,0,0.31c0.15,0.91,0.13,1.81,0.02,2.72c-0.02,0.15-0.01,0.29-0.01,0.44c-0.01,0.24-0.04,0.48-0.21,0.67
					c-0.12,0.13-0.16,0.29-0.16,0.47c-0.01,0.32-0.1,0.6-0.29,0.86c-0.07,0.11-0.12,0.24-0.13,0.37c-0.02,0.18-0.07,0.33-0.23,0.43
					c-0.15,0.1-0.2,0.26-0.21,0.44c-0.01,0.13-0.06,0.31-0.16,0.39c-0.34,0.3-0.54,0.7-0.78,1.08c-0.12,0.19-0.26,0.37-0.4,0.54
					c-0.18,0.21-0.39,0.39-0.58,0.59c-0.23,0.26-0.52,0.43-0.82,0.61c-0.48,0.29-0.92,0.64-1.39,0.91
					c-0.46,0.27-0.96,0.46-1.43,0.72c-0.51,0.28-1.08,0.32-1.64,0.42c-0.46,0.08-0.74,0.34-0.76,0.81c-0.01,0.2,0,0.39,0,0.58
					c0,3.19-0.01,6.38,0,9.57c0,0.2,0.02,0.41,0.09,0.6c0.08,0.26,0.29,0.41,0.56,0.45c0.32,0.04,0.62,0.1,0.87,0.34
					c0.07,0.07,0.21,0.09,0.31,0.13c0.16,0.08,0.32,0.17,0.48,0.25c0.1,0.06,0.2,0.13,0.3,0.15c0.36,0.06,0.61,0.29,0.85,0.54
					c0.14,0.15,0.31,0.26,0.46,0.4c0.17,0.15,0.34,0.29,0.51,0.45c0.62,0.58,1.13,1.25,1.53,1.99c0.09,0.17,0.12,0.37,0.18,0.55
					c0.08,0.25,0.15,0.5,0.25,0.74c0.1,0.23,0.15,0.45,0.17,0.69c0.01,0.23,0.06,0.47,0.13,0.7c0.15,0.47,0.17,0.94,0.02,1.41
					c-0.05,0.16-0.08,0.33-0.09,0.5c-0.03,0.35-0.05,0.7-0.07,1.05c-0.02,0.28-0.07,0.54-0.26,0.76c-0.06,0.07-0.09,0.19-0.09,0.29
					c-0.01,0.2-0.07,0.35-0.23,0.47c-0.16,0.12-0.24,0.26-0.23,0.46c0.02,0.19-0.08,0.32-0.22,0.44c-0.16,0.12-0.24,0.29-0.32,0.48
					c-0.06,0.15-0.17,0.29-0.26,0.43c-0.07,0.1-0.15,0.2-0.23,0.29c-0.08,0.1-0.14,0.21-0.24,0.29c-0.43,0.31-0.78,0.73-1.27,0.98
					c-0.19,0.1-0.34,0.27-0.53,0.37c-0.43,0.22-0.86,0.44-1.31,0.61c-0.22,0.09-0.46,0.09-0.67,0.23c-0.04,0.03-0.1,0.05-0.16,0.06
					c-0.83,0.14-1.67,0.23-2.51,0.2c-0.25-0.01-0.5-0.01-0.75-0.04c-0.26-0.04-0.51-0.1-0.75-0.19c-0.34-0.13-0.67-0.29-1.05-0.25
					c-0.18,0.02-0.33-0.06-0.46-0.19c-0.22-0.21-0.46-0.35-0.75-0.46c-0.17-0.06-0.32-0.18-0.45-0.3c-0.34-0.31-0.64-0.64-1.02-0.91
					c-0.29-0.21-0.51-0.51-0.73-0.8c-0.18-0.23-0.37-0.46-0.5-0.72c-0.34-0.64-0.67-1.29-1-1.94c-0.01-0.02-0.02-0.04-0.02-0.06
					c-0.07-0.46-0.2-0.92-0.21-1.38c-0.03-0.8,0.01-1.6,0.01-2.39c0-0.19,0.07-0.35,0.17-0.51c0.08-0.12,0.13-0.27,0.14-0.4
					c0.02-0.36,0.17-0.67,0.33-0.99c0.2-0.39,0.43-0.77,0.6-1.16c0.16-0.39,0.37-0.69,0.66-0.97c0.21-0.2,0.41-0.39,0.61-0.61
					c0.46-0.51,1.03-0.85,1.66-1.11c0.42-0.17,0.81-0.42,1.21-0.62c0.16-0.08,0.33-0.14,0.51-0.18c0.22-0.06,0.48-0.01,0.62-0.21
					c0.18-0.26,0.29-0.56,0.28-0.89c-0.01-0.2-0.02-0.39-0.02-0.58c0-2.97,0-5.95,0-8.93c0-0.29,0.02-0.59,0.02-0.89
					c0.01-0.24-0.1-0.39-0.33-0.44c-0.19-0.04-0.38-0.1-0.57-0.11c-0.31-0.02-0.58-0.08-0.83-0.28c-0.08-0.07-0.21-0.08-0.32-0.09
					c-0.37-0.02-0.72-0.1-1-0.37c-0.02-0.02-0.06-0.06-0.09-0.06c-0.48-0.09-0.83-0.45-1.29-0.6c-0.15-0.05-0.31-0.15-0.43-0.26
					c-0.72-0.71-1.44-1.43-2.15-2.15c-0.2-0.2-0.32-0.47-0.48-0.7c-0.28-0.42-0.55-0.83-0.84-1.24c-0.17-0.23-0.24-0.49-0.26-0.76
					c-0.01-0.24-0.09-0.46-0.23-0.67c-0.1-0.15-0.14-0.33-0.18-0.5c-0.04-0.14-0.04-0.29-0.07-0.44c-0.07-0.33-0.29-0.54-0.62-0.6
					c-0.11-0.02-0.23-0.03-0.34-0.03C25.94,39.29,24.35,39.29,22.75,39.29z M46.67,37.03c-0.12-0.45,0.07-1.03-0.28-1.52
					c-0.03-0.04-0.04-0.11-0.04-0.17c0.01-0.43-0.2-0.78-0.42-1.13c-0.07-0.1-0.12-0.22-0.17-0.34c-0.19-0.47-0.46-0.89-0.81-1.25
					c-0.46-0.47-0.94-0.93-1.39-1.41c-0.15-0.16-0.29-0.26-0.52-0.28c-0.13-0.01-0.29-0.06-0.37-0.15c-0.24-0.3-0.55-0.42-0.91-0.48
					c-0.11-0.02-0.21-0.07-0.32-0.12c-0.45-0.2-0.91-0.26-1.39-0.29c-0.24-0.01-0.48-0.04-0.7-0.11c-0.21-0.06-0.4-0.06-0.6,0.01
					c-0.14,0.05-0.29,0.09-0.43,0.1c-0.36,0.03-0.73,0.05-1.09,0.06c-0.19,0.01-0.35,0.07-0.51,0.17c-0.16,0.1-0.34,0.18-0.53,0.22
					c-0.23,0.05-0.43,0.12-0.61,0.28c-0.09,0.07-0.19,0.13-0.29,0.16c-0.45,0.1-0.75,0.42-1.08,0.69c-0.16,0.13-0.32,0.25-0.48,0.38
					c-0.13,0.11-0.29,0.21-0.35,0.36c-0.17,0.35-0.42,0.62-0.69,0.88c-0.16,0.15-0.25,0.32-0.31,0.51
					c-0.06,0.16-0.14,0.31-0.22,0.46c-0.2,0.39-0.41,0.78-0.61,1.17c-0.04,0.07-0.02,0.15-0.04,0.23c-0.05,0.27-0.1,0.54-0.15,0.8
					c-0.06,0.32-0.13,0.64-0.18,0.97c-0.02,0.1,0.04,0.22,0.06,0.33c0.03,0.17,0.07,0.33,0.07,0.5c0.01,0.62,0.12,1.21,0.39,1.77
					c0.05,0.1,0.05,0.22,0.07,0.33c0.04,0.17,0.04,0.35,0.12,0.49c0.21,0.39,0.45,0.76,0.69,1.13c0.23,0.35,0.49,0.68,0.76,1
					c0.14,0.17,0.32,0.31,0.5,0.46c0.11,0.09,0.24,0.17,0.36,0.26c0.35,0.28,0.66,0.63,1.14,0.72c0.06,0.01,0.12,0.06,0.18,0.09
					c0.37,0.2,0.73,0.4,1.1,0.6c0.07,0.04,0.18,0.04,0.26,0.05c0.4,0.06,0.83,0.06,1.21,0.18c0.46,0.15,0.92,0.08,1.39,0.11
					c0.09,0.01,0.18-0.03,0.27-0.04c0.29-0.04,0.58-0.09,0.87-0.12c0.28-0.02,0.53-0.07,0.77-0.23c0.15-0.1,0.35-0.15,0.53-0.22
					c0.15-0.06,0.31-0.08,0.45-0.16c0.39-0.24,0.77-0.48,1.14-0.75c0.29-0.2,0.61-0.39,0.82-0.66c0.34-0.44,0.74-0.8,1.12-1.19
					c0.1-0.1,0.15-0.24,0.21-0.38c0.07-0.15,0.1-0.34,0.21-0.45c0.19-0.21,0.27-0.43,0.29-0.71c0.02-0.29,0.09-0.55,0.28-0.79
					c0.11-0.14,0.15-0.35,0.17-0.54C46.64,38.38,46.65,37.74,46.67,37.03z"/>
				<path class="st2" d="M46.67,37.03c-0.02,0.71-0.03,1.35-0.07,1.98c-0.01,0.18-0.06,0.4-0.17,0.54c-0.18,0.24-0.26,0.5-0.28,0.79
					c-0.01,0.27-0.09,0.5-0.29,0.71c-0.11,0.12-0.14,0.31-0.21,0.45c-0.06,0.13-0.11,0.28-0.21,0.38c-0.38,0.39-0.78,0.76-1.12,1.19
					c-0.21,0.27-0.53,0.46-0.82,0.66c-0.37,0.26-0.75,0.51-1.14,0.75c-0.13,0.08-0.3,0.1-0.45,0.16c-0.18,0.07-0.37,0.11-0.53,0.22
					c-0.24,0.17-0.5,0.21-0.77,0.23c-0.29,0.02-0.58,0.07-0.87,0.12c-0.09,0.01-0.18,0.05-0.27,0.04c-0.46-0.03-0.92,0.04-1.39-0.11
					c-0.39-0.12-0.81-0.12-1.21-0.18c-0.09-0.01-0.19-0.01-0.26-0.05c-0.37-0.19-0.73-0.4-1.1-0.6c-0.06-0.03-0.12-0.08-0.18-0.09
					c-0.48-0.09-0.78-0.43-1.14-0.72c-0.12-0.09-0.24-0.17-0.36-0.26c-0.17-0.15-0.35-0.29-0.5-0.46c-0.27-0.32-0.52-0.65-0.76-1
					c-0.25-0.37-0.48-0.75-0.69-1.13c-0.08-0.14-0.08-0.32-0.12-0.49c-0.02-0.11-0.03-0.23-0.07-0.33
					c-0.26-0.56-0.38-1.16-0.39-1.77c0-0.17-0.05-0.34-0.07-0.5c-0.02-0.11-0.07-0.23-0.06-0.33c0.05-0.32,0.12-0.64,0.18-0.97
					c0.05-0.27,0.1-0.54,0.15-0.8c0.01-0.08,0.01-0.17,0.04-0.23c0.2-0.39,0.4-0.78,0.61-1.17c0.08-0.15,0.17-0.3,0.22-0.46
					c0.07-0.2,0.15-0.37,0.31-0.51c0.28-0.25,0.53-0.53,0.69-0.88c0.07-0.14,0.23-0.24,0.35-0.36c0.15-0.13,0.32-0.26,0.48-0.38
					c0.34-0.27,0.63-0.59,1.08-0.69c0.1-0.02,0.21-0.09,0.29-0.16c0.18-0.16,0.39-0.23,0.61-0.28c0.18-0.04,0.37-0.12,0.53-0.22
					c0.16-0.1,0.32-0.17,0.51-0.17c0.37-0.01,0.73-0.02,1.09-0.06c0.15-0.01,0.29-0.05,0.43-0.1c0.2-0.07,0.39-0.07,0.6-0.01
					c0.23,0.06,0.46,0.09,0.7,0.11c0.48,0.02,0.95,0.09,1.39,0.29c0.1,0.05,0.21,0.1,0.32,0.12c0.36,0.06,0.67,0.18,0.91,0.48
					c0.07,0.09,0.24,0.13,0.37,0.15c0.23,0.02,0.37,0.12,0.52,0.28c0.45,0.48,0.92,0.94,1.39,1.41c0.35,0.36,0.62,0.78,0.81,1.25
					c0.05,0.12,0.1,0.23,0.17,0.34c0.22,0.35,0.43,0.7,0.42,1.13c0,0.06,0.01,0.12,0.04,0.17C46.74,36,46.55,36.58,46.67,37.03z"/>
			</g>
		</g>
		<circle cx="19.84" cy="18.46" r="6.63"/>
		<circle cx="62.2" cy="13.32" r="8.77"/>
		<circle cx="39.17" cy="68.01" r="8.56"/>
		<circle cx="8.93" cy="37.78" r="8.56"/>
		<circle cx="38.96" cy="37.56" r="10.91"/>
		<circle class="st2" cx="38.96" cy="37.71" r="8.06"/>
		<g id="lRTUrl.tif">
			<g>
				<path d="M42.42,37.01c-0.18,0-0.35,0-0.53,0c-0.06,0-0.12-0.01-0.17-0.01c-0.07-0.01-0.12-0.06-0.18-0.09
					c-0.01-0.01-0.01-0.01-0.02-0.02c-0.01-0.07-0.06-0.12-0.08-0.18c-0.02-0.04-0.02-0.09-0.03-0.14c-0.01-0.04-0.01-0.07-0.02-0.1
					c-0.02-0.06-0.04-0.12-0.04-0.18c0-0.03-0.01-0.06-0.02-0.09c-0.02-0.03-0.05-0.03-0.07,0c-0.01,0.02-0.02,0.04-0.02,0.06
					c-0.02,0.04-0.06,0.08-0.09,0.12c-0.02,0.02-0.06,0.04-0.09,0.04c-0.04,0.01-0.07,0.01-0.11,0.02
					c-0.05,0.02-0.09,0.02-0.13-0.02c-0.01-0.01-0.02-0.02-0.04-0.02c-0.08-0.02-0.15-0.03-0.23-0.04
					c-0.03-0.01-0.06-0.02-0.09-0.03c-0.04-0.01-0.07-0.02-0.1-0.02c-0.09-0.01-0.17,0-0.26-0.01c-0.04,0-0.07,0-0.1,0
					c-0.64,0-1.28,0-1.93,0c-0.11,0-0.22,0.01-0.32,0.02c-0.04,0-0.09,0-0.12,0s-0.07,0.01-0.1,0.03c-0.02,0.02-0.06,0.03-0.09,0.04
					c-0.07,0.01-0.14,0.02-0.21,0.02c-0.03,0.01-0.06,0.01-0.08,0.02c-0.05,0.02-0.09,0.02-0.14-0.01
					c-0.02-0.01-0.05-0.03-0.07-0.04c-0.04-0.02-0.08-0.06-0.09-0.12c-0.01-0.02-0.01-0.04-0.02-0.05
					c-0.01-0.02-0.04-0.04-0.06-0.04s-0.04,0.02-0.06,0.04c-0.02,0.05-0.03,0.1-0.04,0.15c-0.01,0.04-0.01,0.07-0.03,0.1
					c-0.02,0.03-0.02,0.07-0.02,0.1c0,0.1-0.02,0.2-0.08,0.28c-0.02,0.02-0.04,0.05-0.06,0.07c-0.02,0.02-0.06,0.03-0.08,0.05
					c-0.04,0.02-0.09,0.04-0.14,0.04c-0.38,0-0.75,0-1.13-0.01c-0.07,0-0.14,0.02-0.21,0.04c-0.1,0.03-0.11,0.17-0.03,0.23
					c0.08,0.06,0.17,0.1,0.28,0.09c0.2-0.01,0.4-0.01,0.61-0.01c0.1,0,0.2,0.05,0.28,0.11c0.01,0.01,0.02,0.02,0.03,0.04
					c0.04,0.1,0.08,0.21,0.07,0.32c0,0.02-0.01,0.04-0.02,0.06c-0.02,0.04-0.03,0.08-0.03,0.12c0,0.26,0,0.51,0,0.77
					c0,0.03,0.01,0.06,0.01,0.09c0.01,0.04,0.01,0.07,0.01,0.11c-0.01,0.08,0.01,0.16,0.04,0.24c0.03,0.07,0.04,0.14,0.05,0.21
					c0.01,0.01,0.01,0.03,0.01,0.04c0.04,0.07,0.08,0.15,0.12,0.22c0.01,0.02,0.02,0.05,0.03,0.08c0.01,0.04,0.03,0.07,0.06,0.1
					c0.06,0.06,0.11,0.11,0.13,0.2c0.01,0.02,0.03,0.06,0.06,0.07c0.07,0.04,0.13,0.11,0.19,0.17c0.05,0.06,0.1,0.1,0.18,0.12
					c0.01,0.01,0.03,0.01,0.04,0.02c0.06,0.04,0.12,0.08,0.18,0.12c0.02,0.02,0.06,0.03,0.09,0.03c0.05,0.01,0.09,0.03,0.14,0.06
					c0.03,0.02,0.07,0.03,0.1,0.04c0.07,0.02,0.15,0.02,0.23,0.04c0.07,0.02,0.14,0.05,0.21,0.07c0.02,0.01,0.03,0.02,0.04,0.03
					s0.02,0.02,0.04,0.04c0.12,0.09,0.12,0.21,0.1,0.34c-0.01,0.07-0.06,0.12-0.12,0.15c-0.08,0.05-0.13,0.12-0.2,0.18
					c-0.05,0.05-0.1,0.09-0.15,0.13c-0.02,0.01-0.03,0.03-0.04,0.05c-0.06,0.08-0.12,0.17-0.19,0.23c-0.02,0.02-0.04,0.05-0.06,0.07
					c-0.06,0.12-0.12,0.24-0.17,0.37c-0.01,0.03-0.02,0.06-0.02,0.1c-0.02,0.07-0.03,0.15-0.04,0.22c-0.01,0.02-0.01,0.04-0.01,0.07
					c-0.01,0.02-0.01,0.06-0.01,0.08c-0.02,0.06-0.03,0.12-0.03,0.18c0,0.36,0,0.72,0,1.08c0,0.13-0.06,0.21-0.19,0.25
					c-0.03,0.01-0.06,0.02-0.09,0.04c-0.05,0.02-0.1,0.01-0.15-0.01c-0.03-0.02-0.07-0.03-0.11-0.04c-0.06-0.01-0.11-0.02-0.15-0.06
					c-0.02-0.01-0.04-0.02-0.07-0.03c-0.01-0.01-0.03-0.01-0.04-0.02c-0.09-0.04-0.17-0.09-0.26-0.13
					c-0.09-0.04-0.17-0.08-0.25-0.12c-0.03-0.02-0.06-0.03-0.09-0.05c-0.02-0.01-0.05-0.02-0.07-0.04
					c-0.09-0.04-0.17-0.08-0.24-0.15c-0.01-0.01-0.02-0.01-0.02-0.02c-0.15-0.09-0.29-0.18-0.44-0.28c-0.07-0.05-0.13-0.11-0.2-0.17
					c-0.01-0.01-0.02-0.03-0.04-0.04c-0.1-0.06-0.17-0.14-0.26-0.21c-0.1-0.09-0.2-0.18-0.29-0.28c-0.11-0.11-0.23-0.22-0.34-0.34
					c-0.02-0.02-0.05-0.06-0.06-0.09c-0.06-0.11-0.13-0.21-0.23-0.29c-0.07-0.07-0.13-0.14-0.19-0.21
					c-0.01-0.01-0.02-0.04-0.02-0.06c-0.02-0.03-0.04-0.07-0.05-0.1c-0.01-0.02-0.02-0.06-0.04-0.09c-0.01-0.04-0.03-0.07-0.06-0.1
					c-0.02-0.02-0.04-0.03-0.05-0.05c-0.01-0.01-0.02-0.02-0.04-0.04c-0.04-0.09-0.08-0.17-0.12-0.25
					c-0.02-0.04-0.03-0.08-0.07-0.11c-0.08-0.07-0.13-0.15-0.13-0.26c0-0.01,0-0.02-0.01-0.02c-0.04-0.07-0.06-0.15-0.1-0.21
					s-0.07-0.12-0.07-0.2c0-0.04-0.01-0.08-0.04-0.11c-0.01-0.02-0.02-0.04-0.03-0.06c-0.02-0.04-0.04-0.07-0.06-0.11
					c-0.04-0.06-0.05-0.11-0.06-0.17c0-0.04-0.01-0.07-0.04-0.1c-0.02-0.02-0.02-0.05-0.03-0.08c-0.01-0.08-0.02-0.16-0.03-0.24
					c0-0.02-0.01-0.04-0.02-0.06c-0.04-0.06-0.04-0.13-0.06-0.2c-0.01-0.06-0.02-0.12-0.04-0.17c-0.02-0.07-0.04-0.15-0.04-0.23
					c0-0.05-0.01-0.1-0.01-0.15c0-0.06,0-0.13,0-0.19c0-0.04-0.01-0.09-0.02-0.13c-0.01-0.04-0.01-0.08-0.01-0.12
					c-0.01-0.04-0.01-0.08-0.01-0.12c-0.01-0.04-0.02-0.09-0.02-0.13C32,37.94,32,37.86,32,37.8c0-0.17-0.01-0.34,0.01-0.51
					c0.01-0.09,0.04-0.17,0.03-0.26c0-0.01,0-0.03,0.01-0.04c0.06-0.12,0.04-0.25,0.05-0.38c0-0.03,0.01-0.06,0.01-0.09
					c0.01-0.03,0.01-0.06,0.02-0.09c0.01-0.02,0-0.04,0.01-0.05c0.03-0.05,0.03-0.11,0.04-0.16c0.02-0.08,0.02-0.17,0.07-0.25
					c0-0.01,0.01-0.01,0.01-0.01c0.02-0.08,0.03-0.16,0.05-0.24c0.01-0.02,0.01-0.06,0.02-0.07c0.06-0.1,0.1-0.21,0.12-0.33
					c0.01-0.03,0.02-0.06,0.04-0.09c0.04-0.05,0.05-0.1,0.06-0.15c0-0.05,0.02-0.09,0.05-0.13c0.01-0.02,0.02-0.05,0.04-0.07
					c0.02-0.04,0.04-0.07,0.06-0.11c0.01-0.02,0.02-0.05,0.04-0.08c0.02-0.03,0.03-0.07,0.05-0.1c0.01-0.02,0.02-0.03,0.02-0.04
					c0.04-0.11,0.1-0.2,0.17-0.29c0.05-0.06,0.09-0.13,0.12-0.2c0.04-0.09,0.09-0.18,0.16-0.25c0.07-0.06,0.12-0.14,0.17-0.22
					c0.03-0.06,0.08-0.11,0.12-0.16c0.03-0.03,0.06-0.07,0.09-0.1c0.02-0.02,0.04-0.04,0.06-0.07c0.04-0.05,0.08-0.1,0.12-0.15
					c0.01-0.02,0.03-0.04,0.04-0.06c0.06-0.06,0.12-0.12,0.18-0.18c0.02-0.02,0.03-0.04,0.04-0.06c0.02-0.02,0.04-0.04,0.06-0.06
					c0.06-0.06,0.13-0.12,0.2-0.18c0.05-0.04,0.1-0.07,0.15-0.12c0.09-0.07,0.18-0.16,0.26-0.23c0.01-0.01,0.02-0.02,0.04-0.02
					c0.06-0.02,0.09-0.06,0.14-0.09c0.06-0.04,0.11-0.09,0.17-0.14c0.03-0.03,0.06-0.05,0.1-0.06c0.04-0.01,0.07-0.03,0.11-0.06
					c0.02-0.02,0.06-0.04,0.09-0.04c0.04-0.01,0.07-0.03,0.1-0.06c0.04-0.06,0.1-0.09,0.17-0.12c0.09-0.03,0.17-0.09,0.26-0.13
					c0.01,0,0.01-0.01,0.01-0.01c0.09-0.02,0.16-0.09,0.24-0.12c0.04-0.01,0.07-0.03,0.1-0.05c0.06-0.04,0.11-0.06,0.17-0.06
					c0.04,0,0.08-0.01,0.12-0.04c0.05-0.04,0.11-0.04,0.17-0.06c0.02-0.01,0.06-0.01,0.08-0.02c0.06-0.04,0.13-0.06,0.2-0.07
					c0.03-0.01,0.06-0.01,0.09-0.03c0.04-0.02,0.07-0.04,0.11-0.04c0.07-0.01,0.15-0.02,0.21-0.06c0.03-0.01,0.07-0.02,0.1-0.02
					c0.08-0.01,0.17-0.02,0.24-0.02c0.02-0.01,0.06-0.01,0.08-0.03c0.05-0.02,0.1-0.04,0.15-0.04c0.06,0,0.11-0.01,0.17-0.01
					c0.03,0,0.06-0.01,0.09-0.01c0.08,0,0.15-0.01,0.23-0.02c0.06-0.02,0.13,0,0.19-0.01c0.04,0,0.07-0.01,0.1-0.01
					c0.05-0.01,0.1-0.02,0.15-0.02c0.06-0.01,0.11,0,0.17,0c0.07,0,0.13,0,0.2,0.02c0.02,0.01,0.04,0.01,0.07,0.01
					c0.11,0,0.22-0.01,0.34-0.01c0.04,0,0.07,0.01,0.11,0.02c0.06,0.01,0.1,0.02,0.16,0.02c0.07,0.01,0.15,0.01,0.21,0.01
					c0.03,0,0.06,0.01,0.08,0.02c0.12,0.02,0.24,0.04,0.36,0.07c0.03,0.01,0.06,0.01,0.09,0.02c0.08,0.04,0.15,0.06,0.24,0.06
					c0.06,0.01,0.12,0.02,0.17,0.06c0.02,0.02,0.07,0.03,0.1,0.03c0.06,0,0.1,0.01,0.15,0.05c0.04,0.04,0.09,0.05,0.15,0.05
					c0.05,0,0.1,0.02,0.14,0.05c0.09,0.04,0.17,0.07,0.26,0.11c0.02,0.01,0.04,0.01,0.06,0.02c0.09,0.04,0.18,0.09,0.26,0.13
					c0.01,0,0.01,0.01,0.02,0.01c0.09,0.02,0.15,0.08,0.23,0.11c0.02,0.01,0.04,0.01,0.05,0.02c0.05,0.06,0.12,0.08,0.18,0.12
					c0.09,0.06,0.17,0.12,0.26,0.17c0.11,0.07,0.23,0.14,0.34,0.22c0.06,0.04,0.11,0.1,0.17,0.14c0.1,0.07,0.18,0.15,0.26,0.23
					c0.01,0.01,0.02,0.02,0.04,0.03c0.09,0.04,0.15,0.12,0.22,0.18c0.01,0.01,0.01,0.01,0.01,0.01c0.11,0.07,0.18,0.18,0.27,0.28
					c0.08,0.08,0.14,0.18,0.22,0.26c0.04,0.04,0.07,0.09,0.12,0.13c0.04,0.04,0.07,0.09,0.1,0.14c0.04,0.08,0.09,0.15,0.16,0.21
					c0.05,0.04,0.08,0.09,0.1,0.15c0.01,0.03,0.03,0.06,0.06,0.09c0.04,0.04,0.06,0.07,0.08,0.12s0.04,0.08,0.07,0.12
					c0.01,0.01,0.02,0.02,0.02,0.03c0.04,0.08,0.08,0.17,0.12,0.24c0.02,0.04,0.02,0.08,0.06,0.11c0.01,0,0.01,0.01,0.01,0.01
					c0.02,0.09,0.09,0.17,0.12,0.25c0.01,0.02,0.02,0.05,0.03,0.07c0.05,0.06,0.07,0.13,0.07,0.21c0,0.01,0,0.03,0.01,0.04
					c0.04,0.07,0.07,0.14,0.12,0.21c0.02,0.04,0.04,0.07,0.04,0.12c0,0.06,0.01,0.12,0.06,0.17c0.02,0.02,0.02,0.05,0.02,0.08
					c0.01,0.07,0.02,0.14,0.03,0.21c0,0.02,0.01,0.03,0.02,0.05c0.03,0.04,0.04,0.07,0.04,0.12c0,0.03,0.01,0.06,0.01,0.09
					c0.01,0.09,0.02,0.19,0.07,0.28c0.01,0.02,0.01,0.05,0.01,0.08c0.01,0.05,0.01,0.1,0.01,0.14C46,36.79,46,36.83,46,36.87
					c0,0.01,0,0.01,0,0.01c0.03,0.09,0.04,0.18,0.03,0.26c0,0.01,0,0.01,0,0.01c0.04,0.09,0.03,0.19,0.03,0.29
					c0,0.09,0.01,0.17,0.01,0.25c0,0.12,0,0.23-0.01,0.34c0,0.01,0,0.02-0.01,0.04c-0.04,0.09-0.02,0.17-0.02,0.26
					c0,0.05-0.01,0.09-0.02,0.14c-0.01,0.09-0.02,0.18-0.02,0.28c0,0.12-0.01,0.23-0.06,0.34c-0.01,0.02-0.02,0.06-0.02,0.09
					c-0.02,0.09-0.03,0.19-0.05,0.28c0,0.01,0,0.01-0.01,0.02c-0.06,0.08-0.04,0.18-0.08,0.27c-0.01,0.03,0,0.07-0.02,0.1
					c-0.04,0.07-0.05,0.13-0.06,0.21c0,0.01-0.01,0.02-0.01,0.03c-0.03,0.07-0.06,0.13-0.09,0.2c-0.07,0.12-0.12,0.24-0.15,0.37
					c-0.01,0.02-0.02,0.06-0.03,0.08c-0.02,0.05-0.05,0.09-0.07,0.14c-0.06,0.11-0.12,0.23-0.18,0.34
					c-0.03,0.06-0.08,0.11-0.12,0.17c-0.02,0.03-0.03,0.06-0.05,0.09c-0.04,0.09-0.08,0.17-0.14,0.24c-0.04,0.05-0.07,0.1-0.1,0.15
					c-0.03,0.06-0.07,0.11-0.12,0.15c-0.01,0.01-0.02,0.01-0.02,0.02c-0.06,0.1-0.17,0.17-0.22,0.28c-0.01,0.02-0.02,0.04-0.04,0.05
					c-0.09,0.09-0.17,0.18-0.26,0.28c-0.12,0.13-0.25,0.25-0.38,0.37c-0.08,0.08-0.17,0.15-0.25,0.23c-0.05,0.04-0.1,0.07-0.15,0.1
					c-0.09,0.06-0.18,0.12-0.28,0.18c-0.12,0.09-0.24,0.17-0.37,0.26c-0.05,0.03-0.1,0.06-0.15,0.09c-0.03,0.02-0.06,0.04-0.09,0.07
					c-0.02,0.02-0.06,0.03-0.09,0.04c-0.03,0.02-0.06,0.03-0.09,0.05c-0.01,0-0.01,0.01-0.01,0.01c-0.09,0.04-0.18,0.09-0.27,0.13
					c-0.01,0.01-0.02,0.01-0.04,0.01c-0.06,0-0.12,0.01-0.17,0.06c0,0-0.01,0-0.01,0.01c-0.12,0.05-0.23,0.1-0.34,0.14
					c-0.05,0.02-0.11,0.01-0.17,0.01c-0.02,0-0.04-0.01-0.05-0.02c-0.04-0.04-0.08-0.09-0.12-0.13c-0.01-0.01-0.02-0.03-0.03-0.04
					c-0.06-0.05-0.06-0.11-0.06-0.18c0-0.29,0-0.58,0-0.86c0-0.12-0.01-0.25-0.02-0.37c0-0.02-0.01-0.06-0.02-0.08
					c-0.02-0.06-0.04-0.1-0.04-0.17c0.01-0.06-0.01-0.1-0.06-0.15c-0.04-0.05-0.06-0.11-0.06-0.17c0-0.05-0.01-0.09-0.05-0.12
					c-0.02-0.02-0.05-0.06-0.07-0.09c-0.02-0.02-0.02-0.05-0.04-0.07c-0.02-0.03-0.04-0.07-0.06-0.09c-0.04-0.05-0.09-0.1-0.13-0.15
					c-0.01-0.01-0.01-0.01-0.01-0.01c-0.09-0.07-0.18-0.15-0.27-0.22c-0.01-0.01-0.01-0.01-0.02-0.01c-0.07-0.1-0.18-0.19-0.21-0.32
					c-0.01-0.04-0.01-0.08,0.01-0.12c0.02-0.04,0.04-0.07,0.07-0.12c0.05-0.09,0.14-0.12,0.24-0.13c0.06-0.01,0.11-0.02,0.17-0.04
					c0.06-0.02,0.13-0.04,0.19-0.04c0.04-0.01,0.07-0.01,0.1-0.04c0.01-0.01,0.03-0.02,0.05-0.03c0.05-0.01,0.09-0.04,0.13-0.07
					c0.01-0.01,0.01-0.01,0.02-0.01c0.1-0.01,0.16-0.09,0.24-0.13c0.02-0.01,0.04-0.02,0.06-0.04c0.06-0.05,0.13-0.1,0.18-0.15
					c0.07-0.07,0.12-0.14,0.18-0.21c0.04-0.05,0.08-0.1,0.1-0.16c0.04-0.08,0.08-0.15,0.11-0.23c0.02-0.06,0.04-0.13,0.08-0.19
					c0.01-0.01,0.01-0.02,0.01-0.03c0.01-0.09,0.03-0.17,0.04-0.25c0-0.01,0.01-0.02,0.01-0.03c0.03-0.12,0.04-0.24,0.04-0.37
					c0-0.15,0-0.29,0-0.44c0-0.04-0.01-0.07-0.01-0.11c-0.01-0.07-0.01-0.15-0.01-0.22c0-0.05,0-0.1-0.02-0.14
					c-0.04-0.13-0.02-0.24,0.06-0.35c0.04-0.05,0.09-0.07,0.15-0.08c0.28-0.04,0.54-0.01,0.82-0.02c0.1,0.02,0.17-0.02,0.2-0.11
					c0.01-0.02,0.02-0.03,0.02-0.05s0.01-0.04,0.01-0.05c-0.02-0.04-0.06-0.09-0.09-0.13c-0.02-0.02-0.06-0.02-0.09-0.02
					c-0.18,0-0.35,0-0.53,0C42.47,37.01,42.44,37.01,42.42,37.01C42.42,37.01,42.42,37.01,42.42,37.01z M42.62,36.32L42.62,36.32
					c0.09,0,0.18,0,0.27,0c0.09,0,0.17,0,0.26,0.01c0.05,0.01,0.09,0.02,0.14,0.03c0.03,0.01,0.07,0.01,0.1,0.03
					c0.06,0.03,0.1,0.08,0.16,0.11c0.12,0.06,0.18,0.19,0.26,0.29c0.01,0.01,0.01,0.01,0.01,0.02c0.02,0.08,0.05,0.16,0.07,0.24
					c0.01,0.02,0.01,0.04,0.01,0.05c0,0.07,0.01,0.15-0.02,0.23c-0.01,0.02-0.01,0.04-0.01,0.06c-0.01,0.11-0.04,0.21-0.12,0.29
					c-0.02,0.02-0.02,0.04-0.04,0.06c-0.02,0.02-0.04,0.05-0.06,0.07c-0.04,0.04-0.09,0.07-0.12,0.1c-0.07,0.07-0.15,0.1-0.25,0.11
					c-0.04,0-0.08,0.01-0.11,0.03c-0.06,0.02-0.11,0.04-0.17,0.04c-0.06,0-0.13,0-0.19,0c-0.13,0-0.15,0.02-0.15,0.16
					c0,0.19,0.01,0.38,0,0.56c-0.01,0.14,0.01,0.29-0.04,0.42c-0.01,0.02-0.01,0.04-0.01,0.05c-0.01,0.02-0.01,0.04-0.01,0.06
					c-0.01,0.07-0.03,0.15-0.04,0.22c-0.01,0.04-0.02,0.08-0.04,0.11c-0.03,0.05-0.04,0.1-0.05,0.15c-0.01,0.04-0.02,0.07-0.03,0.1
					c-0.04,0.1-0.12,0.17-0.15,0.27c-0.01,0.01-0.02,0.02-0.02,0.03c-0.02,0.03-0.04,0.07-0.07,0.1c-0.01,0.01-0.01,0.03-0.02,0.04
					c-0.06,0.05-0.1,0.11-0.13,0.18c-0.01,0.01-0.02,0.02-0.04,0.04c-0.07,0.07-0.15,0.15-0.23,0.23c-0.02,0.02-0.06,0.05-0.08,0.06
					c-0.07,0.04-0.15,0.09-0.2,0.15c-0.04,0.05-0.09,0.09-0.15,0.09c-0.02,0.01-0.04,0.01-0.06,0.02c-0.04,0.04-0.09,0.06-0.15,0.07
					c-0.05,0.01-0.07,0.04-0.07,0.09c0,0.04,0.02,0.06,0.04,0.09c0.06,0.07,0.13,0.13,0.15,0.22c0,0.01,0.02,0.02,0.02,0.03
					c0.02,0.03,0.03,0.06,0.04,0.09c0.04,0.09,0.08,0.17,0.12,0.25c0,0.01,0.01,0.01,0.01,0.01c0.05,0.06,0.07,0.12,0.07,0.2
					c0,0.02,0.01,0.06,0.02,0.08c0.03,0.04,0.04,0.09,0.04,0.13c0,0.02,0,0.04,0.01,0.05c0.02,0.06,0.03,0.12,0.02,0.18
					c-0.01,0.01,0,0.02,0,0.04c0.02,0.07,0.03,0.15,0.04,0.22c0.01,0.06,0.02,0.12,0.02,0.18c-0.01,0.1-0.01,0.2-0.01,0.29
					c0,0.04,0,0.07,0.04,0.09c0.04,0.02,0.08,0.01,0.12-0.01c0.01-0.01,0.01-0.01,0.01-0.01c0.03-0.03,0.06-0.05,0.1-0.06
					c0.04-0.01,0.08-0.02,0.1-0.06c0.02-0.04,0.07-0.06,0.1-0.07c0.04-0.02,0.09-0.04,0.13-0.07c0.03-0.02,0.06-0.05,0.1-0.06
					c0.05-0.01,0.09-0.03,0.12-0.07c0.05-0.06,0.1-0.1,0.18-0.12c0.03-0.01,0.06-0.03,0.07-0.05c0.06-0.05,0.1-0.1,0.15-0.15
					c0.02-0.02,0.04-0.04,0.07-0.05c0.09-0.04,0.15-0.09,0.22-0.15c0.2-0.19,0.39-0.38,0.58-0.58c0.04-0.04,0.07-0.07,0.09-0.12
					c0.08-0.13,0.15-0.26,0.26-0.35c0.01-0.01,0.01-0.02,0.02-0.02c0.04-0.09,0.11-0.16,0.16-0.24c0.06-0.1,0.15-0.2,0.18-0.32
					c0.01-0.02,0.02-0.03,0.03-0.05c0.06-0.07,0.1-0.14,0.13-0.23c0.01-0.03,0.03-0.06,0.04-0.08c0.04-0.07,0.08-0.15,0.12-0.23
					c0.01-0.01,0.01-0.03,0.01-0.05c0.01-0.07,0.02-0.13,0.06-0.19c0.01-0.02,0.02-0.04,0.03-0.07c0.01-0.03,0.02-0.06,0.04-0.08
					c0.03-0.04,0.04-0.07,0.04-0.12c0-0.06,0.01-0.11,0.05-0.15c0.03-0.04,0.04-0.08,0.05-0.12c0.01-0.07,0.02-0.13,0.04-0.2
					c0-0.01,0.01-0.03,0.02-0.04c0.03-0.04,0.03-0.09,0.04-0.15c0.01-0.06,0.01-0.12,0.03-0.17c0.05-0.13,0.07-0.26,0.07-0.39
					c0-0.04,0.01-0.08,0.01-0.12c0.01-0.04,0.02-0.09,0.02-0.13c0.01-0.06-0.01-0.12,0-0.18c0.01-0.07,0.02-0.15,0.04-0.22
					c0.02-0.1,0.02-0.2-0.01-0.3c-0.01-0.02-0.01-0.05-0.01-0.07c0-0.11,0-0.23,0-0.34c0-0.05-0.01-0.1-0.03-0.15
					c-0.02-0.04-0.02-0.07-0.03-0.11c-0.01-0.08-0.02-0.16-0.02-0.24c0-0.04,0-0.07,0-0.11c0-0.04,0-0.08-0.03-0.11
					c-0.02-0.03-0.03-0.06-0.04-0.1c-0.01-0.07-0.02-0.14-0.02-0.21c0-0.01-0.01-0.02-0.01-0.03c-0.04-0.04-0.05-0.1-0.05-0.16
					c0-0.01-0.01-0.02-0.01-0.04c-0.02-0.08-0.02-0.17-0.08-0.23V35.7c-0.06-0.15-0.09-0.3-0.18-0.43c0-0.01-0.01-0.01-0.01-0.01
					c-0.01-0.05-0.04-0.09-0.06-0.13c-0.04-0.07-0.07-0.15-0.11-0.23c-0.02-0.04-0.04-0.09-0.06-0.13
					c-0.04-0.07-0.08-0.15-0.11-0.23c-0.02-0.07-0.06-0.12-0.11-0.17c-0.04-0.03-0.07-0.07-0.07-0.12
					c-0.01-0.05-0.04-0.09-0.08-0.12c-0.06-0.04-0.1-0.1-0.11-0.17c-0.01-0.03-0.02-0.06-0.05-0.07c-0.12-0.12-0.24-0.23-0.33-0.38
					c-0.01-0.01-0.02-0.03-0.04-0.04c-0.1-0.09-0.15-0.21-0.27-0.27c-0.01-0.01-0.02-0.02-0.02-0.03c-0.06-0.06-0.12-0.13-0.19-0.17
					c-0.06-0.04-0.1-0.07-0.15-0.12c-0.07-0.07-0.15-0.13-0.23-0.19c-0.06-0.04-0.1-0.07-0.16-0.12c-0.06-0.04-0.12-0.1-0.18-0.14
					c-0.06-0.04-0.12-0.07-0.18-0.1c-0.07-0.03-0.13-0.07-0.19-0.11c-0.09-0.07-0.18-0.13-0.3-0.15c-0.09-0.02-0.17-0.07-0.24-0.12
					c-0.04-0.02-0.07-0.04-0.12-0.06c-0.04-0.01-0.07-0.02-0.11-0.04c-0.04-0.02-0.08-0.04-0.12-0.04c-0.06,0-0.11-0.02-0.16-0.06
					c-0.07-0.04-0.13-0.08-0.22-0.07c-0.02,0-0.03-0.01-0.05-0.02c-0.04-0.01-0.08-0.02-0.12-0.04c-0.03-0.01-0.06-0.01-0.09-0.02
					c-0.09-0.04-0.18-0.06-0.27-0.07c-0.1-0.02-0.2-0.02-0.3-0.06c-0.02-0.01-0.05-0.01-0.08-0.01c-0.13-0.01-0.26,0-0.38-0.04
					c-0.01,0-0.02,0-0.02,0c-0.08,0-0.16,0.01-0.24,0c-0.04,0-0.08-0.01-0.12-0.02c-0.05-0.01-0.1-0.02-0.15-0.02
					c-0.06,0.01-0.12,0-0.17,0c-0.04,0-0.09,0.01-0.13,0.01c-0.05,0.01-0.09,0.02-0.14,0.02c-0.07,0-0.13,0.01-0.2,0.01
					c-0.04,0.01-0.08,0.01-0.12,0.02c-0.04,0.01-0.07,0.01-0.11,0.01c-0.07,0.01-0.15,0.01-0.22,0.02c-0.05,0-0.1,0.01-0.15,0.04
					c-0.03,0.02-0.07,0.02-0.1,0.03c-0.07,0.02-0.15,0.02-0.21,0.04c-0.09,0.03-0.18,0.06-0.28,0.07c-0.02,0-0.04,0.01-0.06,0.02
					c-0.04,0.04-0.09,0.04-0.14,0.05c-0.04,0.01-0.08,0.01-0.11,0.03c-0.06,0.05-0.13,0.07-0.21,0.07c-0.04,0-0.07,0.02-0.1,0.04
					c-0.07,0.04-0.15,0.06-0.21,0.11c-0.01,0-0.01,0-0.01,0.01c-0.05,0.01-0.09,0.03-0.13,0.07c-0.01,0.01-0.02,0.01-0.04,0.02
					c-0.06,0.02-0.11,0.04-0.16,0.08c-0.01,0.01-0.02,0.01-0.04,0.02c-0.05,0.01-0.09,0.03-0.13,0.07
					c-0.02,0.02-0.04,0.03-0.07,0.04c-0.06,0.01-0.1,0.04-0.13,0.09s-0.09,0.09-0.15,0.09c-0.04,0.01-0.07,0.03-0.09,0.06
					c-0.04,0.05-0.09,0.1-0.16,0.12c-0.02,0.01-0.03,0.02-0.04,0.02c-0.08,0.06-0.16,0.12-0.23,0.2c-0.06,0.06-0.13,0.12-0.2,0.18
					c-0.01,0.01-0.03,0.02-0.05,0.04c-0.04,0.03-0.09,0.06-0.12,0.1c-0.07,0.06-0.13,0.13-0.2,0.2c-0.06,0.06-0.13,0.12-0.17,0.21
					c-0.01,0.02-0.03,0.04-0.05,0.06c-0.06,0.06-0.11,0.11-0.16,0.18c-0.06,0.07-0.1,0.14-0.15,0.21c-0.01,0.02-0.02,0.04-0.04,0.05
					c-0.06,0.07-0.12,0.13-0.16,0.2c-0.06,0.09-0.1,0.19-0.16,0.29c-0.02,0.04-0.06,0.08-0.09,0.12c-0.05,0.07-0.09,0.15-0.12,0.23
					c-0.04,0.09-0.09,0.18-0.13,0.28c-0.04,0.1-0.06,0.2-0.12,0.3c-0.02,0.03-0.03,0.06-0.05,0.09C33.01,35.61,33,35.65,33,35.7
					c0,0.06-0.01,0.1-0.05,0.14c-0.02,0.03-0.03,0.06-0.04,0.1c-0.01,0.08-0.03,0.16-0.04,0.24c-0.01,0.02-0.02,0.03-0.02,0.05
					c-0.01,0.02-0.02,0.05-0.02,0.07c-0.02,0.1-0.04,0.2-0.06,0.3c-0.02,0.06-0.03,0.12-0.03,0.18c0,0.06-0.01,0.11-0.02,0.16
					c-0.01,0.05-0.02,0.1-0.02,0.15c0,0.04-0.01,0.08-0.01,0.12c-0.01,0.04-0.02,0.09-0.02,0.13c-0.01,0.06,0.01,0.13-0.01,0.19
					c-0.02,0.12-0.02,0.23,0,0.34c0.01,0.04,0,0.07,0,0.1c0.01,0.07,0,0.14,0.01,0.21c0.01,0.05,0.02,0.1,0.02,0.15
					c0,0.04,0,0.07,0.01,0.1c0.02,0.06,0.02,0.1,0.02,0.16c0,0.04,0.01,0.09,0.01,0.13c0.02,0.1,0.02,0.2,0.07,0.29
					c0,0.01,0,0.01,0.01,0.02c0.01,0.09,0.02,0.17,0.03,0.26c0,0.02,0.01,0.05,0.02,0.07c0.04,0.09,0.07,0.18,0.07,0.27
					c0,0.02,0.01,0.04,0.02,0.06c0.01,0.03,0.03,0.07,0.05,0.1c0.01,0.02,0.01,0.04,0.03,0.06c0.05,0.05,0.06,0.11,0.06,0.18
					c0,0.04,0.01,0.08,0.04,0.11c0.05,0.06,0.07,0.12,0.07,0.2c0,0.04,0.02,0.07,0.05,0.1c0.02,0.02,0.04,0.06,0.07,0.1
					c0.02,0.04,0.04,0.09,0.07,0.12c0.03,0.04,0.05,0.07,0.06,0.12c0.01,0.03,0.02,0.06,0.04,0.08c0.02,0.03,0.03,0.06,0.05,0.09
					c0.04,0.08,0.08,0.17,0.12,0.24c0,0.01,0.01,0.01,0.01,0.01c0.06,0.07,0.12,0.13,0.18,0.2c0.03,0.03,0.04,0.06,0.06,0.1
					c0.01,0.03,0.03,0.06,0.06,0.09c0.05,0.06,0.1,0.1,0.13,0.18c0.04,0.09,0.1,0.16,0.17,0.23c0.17,0.17,0.34,0.34,0.51,0.51
					c0.03,0.03,0.06,0.06,0.1,0.09c0.07,0.05,0.16,0.09,0.21,0.16c0.01,0.01,0.01,0.01,0.02,0.01c0.05,0.04,0.1,0.07,0.15,0.11
					s0.1,0.06,0.14,0.1c0.07,0.06,0.14,0.13,0.24,0.16c0.01,0.01,0.02,0.01,0.03,0.02c0.07,0.07,0.16,0.1,0.24,0.15
					c0.03,0.02,0.07,0.02,0.09,0.04c0.06,0.04,0.12,0.07,0.17,0.12c0.03,0.03,0.07,0.03,0.11,0.01c0.04-0.02,0.04-0.06,0.04-0.09
					c0-0.01,0-0.02,0-0.02c0-0.12,0-0.23,0-0.35c0-0.02,0.01-0.05,0.01-0.08c0.01-0.05,0.02-0.09,0.02-0.14
					c0-0.06,0.01-0.1,0.02-0.15c0.01-0.04,0.02-0.09,0.02-0.13c0.01-0.03,0.01-0.06,0.01-0.09c0.01-0.04,0.02-0.08,0.02-0.12
					c0-0.01,0-0.03,0.01-0.04c0.04-0.06,0.05-0.13,0.06-0.2c0-0.01,0-0.02,0.01-0.03c0.04-0.07,0.07-0.15,0.11-0.21
					c0.02-0.04,0.05-0.09,0.08-0.13c0.07-0.1,0.15-0.21,0.22-0.32c0.04-0.06,0.02-0.12-0.06-0.15c-0.03-0.01-0.06-0.02-0.09-0.04
					c-0.03-0.02-0.07-0.03-0.1-0.05c-0.07-0.04-0.13-0.07-0.2-0.11c-0.07-0.04-0.13-0.09-0.19-0.13c-0.02-0.02-0.05-0.04-0.07-0.06
					c-0.06-0.06-0.13-0.11-0.19-0.17c-0.03-0.03-0.06-0.06-0.08-0.1c-0.06-0.1-0.11-0.19-0.2-0.26c-0.04-0.03-0.06-0.07-0.07-0.12
					c-0.04-0.09-0.08-0.17-0.12-0.25c-0.04-0.07-0.07-0.13-0.07-0.21c0-0.03-0.02-0.06-0.03-0.09c-0.01-0.03-0.03-0.06-0.04-0.1
					c-0.01-0.06-0.02-0.11-0.02-0.17c0-0.04-0.01-0.07-0.04-0.1c-0.03-0.03-0.04-0.07-0.04-0.11c0-0.03,0.01-0.06,0-0.09
					c-0.01-0.14-0.01-0.28-0.01-0.43c0-0.07,0.01-0.13,0.01-0.2c0-0.09,0-0.17,0-0.26c0-0.07-0.03-0.1-0.1-0.1
					c-0.08-0.01-0.16,0-0.24,0c-0.06,0-0.12-0.01-0.17-0.03c-0.03-0.01-0.07-0.03-0.1-0.04c-0.15-0.03-0.26-0.1-0.37-0.21
					c-0.03-0.03-0.06-0.07-0.1-0.1c-0.07-0.06-0.09-0.13-0.1-0.22c0-0.04-0.01-0.07-0.03-0.1c-0.03-0.03-0.04-0.07-0.04-0.11
					c0-0.1-0.01-0.2,0.03-0.29c0-0.01,0-0.01,0-0.02c-0.01-0.09,0.04-0.15,0.09-0.21c0.04-0.06,0.09-0.12,0.12-0.18
					c0.02-0.04,0.05-0.07,0.09-0.07s0.07-0.03,0.1-0.06s0.06-0.05,0.1-0.05c0.03,0,0.06-0.01,0.09-0.03
					c0.02-0.01,0.05-0.02,0.07-0.03c0.08-0.01,0.16-0.01,0.24-0.01c0.25,0,0.5,0,0.75,0c0.13,0,0.2-0.07,0.2-0.2
					c0-0.04,0-0.09,0.01-0.13c0.01-0.03,0.02-0.06,0.03-0.09c0.04-0.04,0.04-0.09,0.04-0.15c0-0.05,0-0.1,0.02-0.14
					c0.02-0.07,0.01-0.16,0.06-0.23c0.01-0.01,0-0.02,0.01-0.03c0.02-0.09,0.03-0.17,0.05-0.26c0-0.01,0.01-0.01,0.01-0.02
					c0.03-0.04,0.04-0.09,0.04-0.15c0-0.07,0.01-0.13,0.04-0.19c0.03-0.06,0.05-0.13,0.05-0.2c0.01-0.04,0.01-0.08,0.02-0.12
					c0.01-0.02,0.01-0.05,0.01-0.07c0-0.05,0.02-0.1,0.05-0.13c0.02-0.03,0.06-0.06,0.08-0.09c0.04-0.04,0.08-0.06,0.13-0.06
					c0.04,0,0.09,0,0.12,0c0.08,0,0.15,0.02,0.18,0.1c0.01,0.02,0.02,0.04,0.04,0.06c0.04,0.04,0.05,0.07,0.06,0.12
					c0.01,0.04,0.02,0.08,0.03,0.12c0.01,0.05,0.02,0.1,0.04,0.15c0.01,0.06,0.02,0.13,0.04,0.18c0.02,0.06,0.04,0.12,0.05,0.18
					c0.01,0.06,0.01,0.11,0.02,0.17c0.01,0.03,0.02,0.06,0.03,0.09c0.01,0.03,0.03,0.06,0.04,0.1c0.01,0.06,0.01,0.12,0.02,0.18
					c0.01,0.06,0.02,0.09,0.08,0.09c0.11,0,0.23-0.01,0.34-0.02c0.01,0,0.02-0.01,0.02-0.01c0.04-0.01,0.07-0.02,0.11-0.02
					c0.76,0,1.53,0,2.29,0c0.01,0,0.03,0,0.04,0.01c0.07,0.03,0.13,0.03,0.21,0.04c0.04,0,0.08,0.01,0.12,0.01
					c0.1,0.01,0.18-0.09,0.18-0.18c0-0.06,0.01-0.1,0.01-0.16c0.01-0.02,0.01-0.06,0.03-0.07c0.04-0.06,0.06-0.12,0.05-0.18
					c0-0.06,0.01-0.12,0.03-0.17c0.03-0.06,0.04-0.13,0.06-0.2c0.01-0.05,0.02-0.1,0.03-0.15c0.02-0.07,0.04-0.13,0.06-0.2
					c0.01-0.02,0.01-0.06,0.03-0.08c0.06-0.06,0.13-0.1,0.2-0.15c0.03-0.02,0.07-0.01,0.11-0.01c0.02,0,0.06,0.01,0.07,0.02
					c0.09,0.04,0.19,0.09,0.21,0.21c0,0.02,0.01,0.03,0.02,0.05c0.04,0.1,0.07,0.2,0.07,0.31c0,0.02,0.01,0.04,0.02,0.06
					c0.03,0.06,0.04,0.12,0.05,0.19c0.01,0.06,0.01,0.11,0.02,0.17c0,0.01,0,0.03,0.01,0.04c0.05,0.06,0.06,0.12,0.06,0.19
					c0,0.01,0.01,0.02,0.01,0.04c0.01,0.03,0.01,0.07,0.02,0.1s0.01,0.06,0.02,0.1c0.01,0.05,0.03,0.1,0.04,0.15
					c0.01,0.06,0.01,0.13,0.02,0.19c0,0.01,0,0.04,0.01,0.04c0.05,0.06,0.06,0.12,0.06,0.19c0,0.01,0.01,0.02,0.01,0.04
					C42,36.17,42,36.19,42,36.22c0.01,0.08,0.02,0.1,0.1,0.1c0.02,0,0.04,0,0.07,0C42.36,36.32,42.49,36.32,42.62,36.32z"/>
			</g>
		</g>
	</g>
</g>
</svg>
